<?xml version="1.0" standalone="no"?>
<!DOCTYPE svg PUBLIC "-//W3C//DTD SVG 20010904//EN"
 "http://www.w3.org/TR/2001/REC-SVG-20010904/DTD/svg10.dtd">
<svg version="1.0" xmlns="http://www.w3.org/2000/svg"
 width="611.000000pt" height="795.000000pt" viewBox="0 0 611.000000 795.000000"
 preserveAspectRatio="xMidYMid meet">

<g transform="translate(0.000000,795.000000) scale(0.100000,-0.100000)"
fill="#000000" stroke="none">
<path d="M2671 7609 c-80 -24 -154 -93 -187 -172 -19 -45 -20 -46 -89 -63
-339 -82 -744 -284 -1043 -521 -129 -101 -368 -343 -463 -468 -308 -405 -480
-809 -566 -1330 -27 -169 -25 -599 5 -790 26 -167 77 -372 127 -510 20 -55 41
-114 47 -130 9 -27 6 -37 -20 -79 -95 -149 -46 -338 108 -416 l40 -20 2 -582
3 -583 448 -316 c247 -174 453 -321 458 -326 6 -6 11 -156 12 -381 2 -359 3
-371 23 -399 11 -15 32 -34 45 -40 19 -10 341 -13 1464 -13 1422 0 1440 0
1473 20 18 11 37 32 42 46 6 15 10 178 10 393 l0 368 39 26 c138 92 859 602
874 619 16 19 17 62 17 597 l0 578 53 36 c83 58 126 136 127 234 0 56 -28 143
-56 174 -15 17 -14 23 19 106 206 512 246 1123 111 1668 -159 640 -546 1213
-1079 1597 -272 195 -605 353 -917 433 l-106 28 -16 42 c-87 226 -409 239
-516 21 -29 -59 -32 -72 -28 -138 6 -118 62 -201 167 -250 l51 -23 0 -531 c0
-502 1 -532 18 -547 10 -10 26 -17 35 -17 9 0 111 36 228 80 l211 80 39 -35
c21 -19 50 -37 64 -41 l25 -6 0 -246 0 -245 -37 -46 c-62 -76 -291 -307 -403
-405 -112 -99 -308 -256 -319 -256 -3 0 -77 165 -164 367 l-157 367 29 30 c85
90 89 210 10 299 -63 72 -162 96 -244 58 -129 -59 -173 -211 -94 -326 31 -44
80 -76 141 -90 l51 -11 47 -110 c26 -60 100 -230 164 -378 64 -147 116 -272
116 -276 0 -11 -253 -183 -437 -296 l-153 -94 -485 146 -486 146 -143 -56
c-78 -31 -145 -56 -150 -56 -4 0 -24 13 -44 29 -75 59 -158 67 -243 24 -76
-39 -114 -102 -114 -187 1 -129 88 -217 214 -217 119 -1 201 73 219 200 l7 44
125 48 c69 27 130 49 135 49 7 0 729 -214 820 -243 15 -5 -110 -73 -395 -215
-284 -142 -476 -229 -747 -338 -288 -116 -347 -135 -369 -120 -24 17 -81 35
-118 38 -16 2 -34 12 -42 23 -25 39 -113 321 -138 446 -45 220 -59 380 -53
604 5 168 25 374 42 423 3 9 137 12 624 12 l620 0 26 -47 c67 -123 227 -152
332 -60 94 82 97 235 7 319 -107 100 -286 65 -349 -67 l-16 -35 -606 0 -606 0
7 39 c10 62 84 277 137 394 296 665 865 1181 1547 1405 64 22 140 45 169 51
l52 13 50 -50 c126 -126 339 -108 434 37 98 148 49 339 -107 418 -57 29 -150
39 -205 22z m155 -164 c89 -58 81 -188 -16 -238 -94 -48 -211 34 -195 137 15
103 126 157 211 101z m667 -1 c30 -22 57 -74 57 -110 0 -39 -35 -97 -70 -118
-128 -74 -262 76 -177 198 39 56 134 71 190 30z m307 -291 c196 -55 425 -154
613 -266 l89 -52 -7 -100 c-19 -306 -136 -635 -332 -939 -90 -139 -83 -143
-83 55 l0 174 50 27 c104 58 139 174 85 284 -94 193 -373 142 -403 -73 l-7
-47 -165 -62 -165 -62 -5 462 c-3 253 -3 471 -1 484 2 12 10 22 17 22 31 0
115 52 145 90 36 44 24 44 169 3z m1006 -561 c351 -313 632 -761 760 -1214 67
-241 78 -358 48 -531 -74 -429 -401 -871 -944 -1274 -390 -290 -899 -567
-1422 -774 -175 -69 -141 -68 -413 -13 -381 76 -890 227 -1222 362 -106 43
-120 47 -108 28 19 -28 130 -124 205 -176 56 -40 58 -43 49 -73 -5 -18 -12
-68 -15 -113 -21 -263 154 -518 411 -600 114 -36 250 -36 359 0 160 54 275
153 351 303 l25 51 60 -4 c33 -2 87 -6 120 -8 l60 -4 256 -261 c224 -228 264
-265 322 -293 81 -40 183 -50 260 -25 49 16 813 441 868 483 18 13 44 47 58
76 l26 52 0 456 0 455 100 84 c228 191 470 469 597 685 l24 41 -7 -40 c-28
-177 -64 -313 -132 -496 l-35 -97 -53 -5 c-141 -15 -247 -120 -261 -260 -10
-102 41 -204 135 -266 l52 -35 -2 -519 -3 -519 -445 -314 c-245 -172 -455
-325 -467 -339 -23 -26 -23 -28 -23 -356 0 -316 -1 -330 -20 -349 -19 -19 -33
-20 -214 -20 -242 0 -226 -12 -226 176 0 120 -2 134 -23 165 -43 64 -121 63
-170 -2 -17 -23 -19 -45 -21 -167 -1 -121 -4 -144 -19 -159 -16 -16 -40 -18
-247 -18 -198 0 -231 2 -245 16 -14 14 -17 42 -15 188 1 186 -8 240 -45 277
-43 43 -138 24 -164 -33 -7 -15 -11 -100 -11 -218 l0 -194 -26 -20 c-25 -20
-39 -21 -245 -21 -277 0 -259 -12 -259 170 0 149 -11 190 -59 214 -38 20 -64
20 -102 0 -48 -24 -59 -65 -59 -212 0 -176 13 -167 -231 -167 -167 0 -190 2
-206 18 -16 16 -18 46 -20 349 -2 273 -5 335 -18 354 -15 23 -80 70 -617 449
l-298 210 0 533 c0 362 3 532 10 532 6 0 33 20 59 45 61 57 92 126 93 205 l1
59 51 17 c293 97 948 393 1331 602 402 219 818 491 1100 721 686 557 1083
1142 1191 1756 8 44 14 95 14 113 0 17 4 32 8 32 5 0 53 -40 108 -88z m-4026
-3094 c74 -50 93 -124 51 -192 -25 -40 -58 -56 -116 -56 -78 0 -147 85 -130
160 13 60 74 109 136 110 14 0 41 -10 59 -22z m4713 8 c131 -55 103 -238 -39
-254 -87 -9 -147 47 -146 136 2 54 24 90 73 114 41 22 69 23 112 4z m-3437
-715 c138 -68 435 -168 555 -187 21 -4 39 -10 39 -14 0 -15 -60 -89 -92 -113
-189 -145 -472 -71 -569 148 -23 53 -39 205 -22 205 6 0 46 -17 89 -39z"/>
<path d="M3052 1927 c-12 -6 -79 -82 -147 -167 -110 -135 -125 -159 -125 -192
0 -28 6 -42 26 -57 41 -33 78 -27 128 19 52 48 101 70 156 70 55 0 104 -22
156 -70 33 -30 52 -40 77 -40 44 0 77 34 77 81 0 30 -18 58 -127 191 -146 179
-167 194 -221 165z"/>
<path d="M2718 6745 c-82 -21 -132 -69 -160 -154 l-14 -45 -224 -82 c-123 -46
-227 -89 -231 -96 -5 -7 -9 -79 -9 -160 l0 -148 -175 0 -174 0 -17 35 c-38 81
-134 133 -223 121 -169 -23 -249 -226 -139 -352 50 -57 99 -77 178 -72 85 5
138 37 178 108 l27 50 212 0 c179 0 214 2 227 16 13 13 16 43 16 173 l0 157
183 67 c101 37 188 67 194 67 5 0 19 -13 31 -29 11 -16 44 -40 73 -55 218
-108 419 162 255 342 -47 52 -134 76 -208 57z"/>
</g>
</svg>
